<?xml version="1.0" standalone="no"?>
<!DOCTYPE svg PUBLIC "-//W3C//DTD SVG 20010904//EN"
 "http://www.w3.org/TR/2001/REC-SVG-20010904/DTD/svg10.dtd">
<svg version="1.0" xmlns="http://www.w3.org/2000/svg"
 width="377.000000pt" height="377.000000pt" viewBox="0 0 377.000000 377.000000"
 preserveAspectRatio="xMidYMid meet">
<metadata>
Created by potrace 1.11, written by Peter Selinger 2001-2013
</metadata>
<g transform="translate(0.000000,377.000000) scale(0.100000,-0.100000)"
fill="#000000" stroke="none">
<path d="M724 3080 c-155 -21 -256 -71 -369 -185 -92 -92 -139 -175 -179 -320
-79 -283 -147 -1172 -107 -1410 25 -151 79 -271 155 -348 138 -138 389 -177
562 -89 58 30 145 112 200 188 59 83 151 276 200 421 l39 113 663 0 c522 0
663 -3 666 -12 2 -7 25 -71 51 -143 122 -333 251 -510 425 -585 124 -53 323
-31 448 50 171 110 242 301 242 650 0 288 -55 871 -105 1111 -73 349 -318 562
-645 562 -159 -1 -290 -46 -417 -146 l-72 -57 -599 0 c-594 0 -599 0 -618 21
-111 123 -355 203 -540 179z m186 -201 c57 -13 160 -64 183 -91 9 -11 17 -16
17 -12 0 5 22 -15 48 -44 l48 -52 683 0 683 0 56 59 c103 107 234 158 385 149
67 -4 88 -10 155 -46 42 -22 76 -46 74 -52 -1 -6 1 -9 6 -6 26 16 136 -158
166 -264 49 -175 109 -789 108 -1105 0 -214 -18 -310 -77 -414 -29 -51 -105
-108 -127 -95 -6 4 -8 3 -5 -4 9 -13 -64 -26 -94 -17 -15 5 -19 4 -15 -4 5 -8
-5 -10 -36 -5 -24 4 -45 11 -46 16 -2 4 -8 6 -13 2 -5 -3 -9 0 -9 5 0 6 -3 10
-7 9 -15 -5 -80 42 -110 80 -51 63 -107 161 -150 263 -42 98 -133 362 -133
386 0 11 -149 13 -813 13 -644 0 -814 -3 -814 -12 0 -22 -34 -132 -45 -145 -6
-7 -8 -13 -4 -13 13 0 -101 -288 -141 -352 -13 -21 -23 -40 -23 -43 0 -11 -78
-110 -106 -136 -80 -71 -154 -89 -257 -60 -116 32 -167 81 -206 197 -46 139
-51 347 -16 764 48 579 94 778 211 905 101 110 270 160 424 124z"/>
<path d="M2768 2608 c-35 -20 -68 -75 -68 -113 0 -33 34 -97 63 -117 35 -25
98 -28 145 -7 37 16 72 77 72 125 0 37 -45 108 -77 123 -38 17 -95 12 -135
-11z"/>
<path d="M782 2610 c-47 -10 -154 -61 -159 -76 -2 -5 33 -47 77 -93 44 -47 80
-89 80 -94 0 -4 4 -6 8 -3 5 3 26 -13 46 -34 21 -22 41 -40 45 -40 13 0 236
229 236 242 0 17 -88 75 -133 88 -56 15 -152 20 -200 10z"/>
<path d="M585 2514 c2 -4 -7 -21 -20 -38 -62 -82 -87 -213 -61 -317 20 -77 67
-164 90 -164 8 0 70 54 136 119 l121 119 -28 30 c-15 16 -70 70 -120 120 -51
49 -90 94 -87 99 3 5 0 7 -7 6 -7 -2 -13 2 -14 9 0 6 -3 14 -7 17 -5 3 -6 3
-3 0z"/>
<path d="M1040 2366 c-63 -63 -116 -119 -118 -126 -2 -6 15 -29 38 -51 24 -23
38 -44 34 -51 -4 -6 -3 -8 3 -5 6 4 42 -25 79 -63 38 -39 74 -70 79 -70 19 0
76 132 84 193 4 31 4 85 -1 118 -8 59 -52 159 -73 166 -6 2 -62 -48 -125 -111z"/>
<path d="M2520 2343 c-45 -31 -57 -54 -59 -114 -2 -54 0 -59 34 -92 58 -56
133 -60 187 -9 60 56 61 150 2 202 -29 25 -43 30 -87 30 -33 0 -62 -6 -77 -17z"/>
<path d="M3007 2333 c-26 -18 -40 -38 -48 -65 -14 -54 -4 -91 38 -133 31 -31
41 -35 85 -35 61 0 103 27 127 81 24 53 16 92 -30 139 -35 36 -44 40 -87 40
-35 0 -57 -7 -85 -27z"/>
<path d="M819 2129 c-38 -39 -69 -67 -69 -63 0 4 -12 -9 -28 -28 -15 -19 -40
-46 -55 -59 -33 -29 -28 -39 38 -71 100 -51 230 -54 328 -10 57 26 96 56 86
67 -2 2 -55 56 -117 119 l-114 115 -69 -70z"/>
<path d="M2759 2096 c-107 -73 -50 -256 80 -256 84 0 141 60 141 149 0 39 -5
54 -27 79 -37 40 -63 52 -115 52 -29 0 -55 -8 -79 -24z"/>
</g>
</svg>
